<?xml version="1.0" encoding="UTF-8"?>
<svg xmlns="http://www.w3.org/2000/svg" xmlns:xlink="http://www.w3.org/1999/xlink" width="200px" height="70px" viewBox="0 0 200 70" version="1.1">
<g id="surface1">
<path style=" stroke:none;fill-rule:nonzero;fill:rgb(255,255,255, 1);fill-opacity:1;" d="M 65.710938 11.097656 L 65.710938 23.222656 L 63.507812 23.222656 L 57.722656 15.867188 L 57.722656 23.222656 L 55.058594 23.222656 L 55.058594 11.097656 L 57.285156 11.097656 L 63.058594 18.460938 L 63.058594 11.097656 Z M 65.710938 11.097656 "/>
<path style=" stroke:none;fill-rule:nonzero;fill:rgb(255,255,255, 1);fill-opacity:1;" d="M 75.089844 18.5 L 73.226562 13.832031 L 71.367188 18.5 Z M 75.933594 20.625 L 70.539062 20.625 L 69.515625 23.222656 L 66.726562 23.222656 L 71.898438 11.089844 L 74.550781 11.089844 L 79.75 23.222656 L 76.957031 23.222656 Z M 75.933594 20.625 "/>
<path style=" stroke:none;fill-rule:nonzero;fill:rgb(255,255,255, 1);fill-opacity:1;" d="M 81.730469 13.382812 L 78.019531 13.382812 L 78.019531 11.097656 L 88.140625 11.097656 L 88.140625 13.382812 L 84.417969 13.382812 L 84.417969 23.222656 L 81.730469 23.222656 Z M 81.730469 13.382812 "/>
<path style=" stroke:none;fill-rule:nonzero;fill:rgb(255,255,255, 1);fill-opacity:1;" d="M 89.691406 11.097656 L 92.382812 11.097656 L 92.382812 23.222656 L 89.691406 23.222656 Z M 89.691406 11.097656 "/>
<path style=" stroke:none;fill-rule:nonzero;fill:rgb(255,255,255, 1);fill-opacity:1;" d="M 102.390625 20.535156 C 102.941406 20.207031 103.394531 19.730469 103.691406 19.160156 C 104.324219 17.894531 104.324219 16.40625 103.691406 15.136719 C 103.394531 14.570312 102.941406 14.09375 102.390625 13.765625 C 101.238281 13.101562 99.820312 13.101562 98.667969 13.765625 C 98.117188 14.09375 97.667969 14.570312 97.367188 15.136719 C 96.734375 16.40625 96.734375 17.894531 97.367188 19.160156 C 97.667969 19.730469 98.117188 20.207031 98.667969 20.535156 C 99.820312 21.199219 101.238281 21.199219 102.390625 20.535156 M 97.273438 22.605469 C 96.324219 22.085938 95.53125 21.308594 94.996094 20.367188 C 94.441406 19.386719 94.160156 18.277344 94.175781 17.15625 C 94.15625 16.03125 94.441406 14.921875 94.996094 13.945312 C 95.53125 12.996094 96.320312 12.21875 97.273438 11.695312 C 99.3125 10.613281 101.75 10.613281 103.785156 11.695312 C 104.734375 12.242188 105.515625 13.039062 106.046875 14 C 107.152344 15.996094 107.152344 18.425781 106.046875 20.421875 C 105.503906 21.359375 104.71875 22.132812 103.777344 22.660156 C 101.738281 23.742188 99.300781 23.742188 97.265625 22.660156 "/>
<path style=" stroke:none;fill-rule:nonzero;fill:rgb(255,255,255, 1);fill-opacity:1;" d="M 119.070312 11.097656 L 119.070312 23.222656 L 116.863281 23.222656 L 111.078125 15.867188 L 111.078125 23.222656 L 108.417969 23.222656 L 108.417969 11.097656 L 110.640625 11.097656 L 116.417969 18.460938 L 116.417969 11.097656 Z M 119.070312 11.097656 "/>
<path style=" stroke:none;fill-rule:nonzero;fill:rgb(255,255,255, 1);fill-opacity:1;" d="M 128.445312 18.5 L 126.585938 13.832031 L 124.726562 18.5 Z M 129.300781 20.625 L 123.90625 20.625 L 122.882812 23.222656 L 120.09375 23.222656 L 125.265625 11.089844 L 127.917969 11.089844 L 133.117188 23.222656 L 130.324219 23.222656 Z M 129.300781 20.625 "/>
<path style=" stroke:none;fill-rule:nonzero;fill:rgb(255,255,255, 1);fill-opacity:1;" d="M 134.175781 11.097656 L 136.863281 11.097656 L 136.863281 20.933594 L 142.847656 20.933594 L 142.847656 23.222656 L 134.175781 23.222656 Z M 134.175781 11.097656 "/>
<path style=" stroke:none;fill-rule:nonzero;fill:rgb(255,255,255, 1);fill-opacity:1;" d="M 61.859375 36.335938 L 60 31.667969 L 58.140625 36.335938 Z M 62.707031 38.460938 L 57.320312 38.460938 L 56.289062 41.066406 L 53.496094 41.066406 L 58.679688 28.933594 L 61.394531 28.933594 L 66.585938 41.066406 L 63.796875 41.066406 Z M 62.707031 38.460938 "/>
<path style=" stroke:none;fill-rule:nonzero;fill:rgb(255,255,255, 1);fill-opacity:1;" d="M 69.050781 40.878906 C 68.300781 40.675781 67.597656 40.332031 66.976562 39.863281 L 67.90625 37.753906 C 68.441406 38.164062 69.042969 38.480469 69.683594 38.6875 C 70.34375 38.914062 71.039062 39.03125 71.738281 39.03125 C 72.324219 39.074219 72.914062 38.953125 73.433594 38.675781 C 73.769531 38.488281 73.976562 38.132812 73.980469 37.742188 C 73.984375 37.46875 73.863281 37.203125 73.65625 37.023438 C 73.414062 36.820312 73.132812 36.664062 72.828125 36.566406 C 72.484375 36.457031 72.027344 36.324219 71.460938 36.183594 C 70.722656 36.011719 69.996094 35.792969 69.285156 35.53125 C 68.71875 35.3125 68.21875 34.949219 67.832031 34.476562 C 67.40625 33.925781 67.191406 33.234375 67.226562 32.535156 C 67.226562 31.875 67.417969 31.222656 67.777344 30.667969 C 68.179688 30.0625 68.753906 29.589844 69.421875 29.308594 C 70.277344 28.949219 71.195312 28.777344 72.121094 28.800781 C 72.851562 28.800781 73.582031 28.894531 74.289062 29.082031 C 74.945312 29.246094 75.574219 29.511719 76.148438 29.875 L 75.347656 31.9375 C 74.378906 31.339844 73.265625 31.019531 72.128906 31.003906 C 71.550781 30.960938 70.972656 31.089844 70.464844 31.378906 C 70.125 31.597656 69.917969 31.980469 69.925781 32.386719 C 69.902344 32.800781 70.15625 33.183594 70.550781 33.320312 C 71.144531 33.585938 71.769531 33.785156 72.410156 33.917969 C 73.148438 34.09375 73.875 34.316406 74.585938 34.578125 C 75.148438 34.796875 75.648438 35.152344 76.039062 35.617188 C 76.464844 36.164062 76.679688 36.84375 76.640625 37.539062 C 76.640625 38.203125 76.449219 38.851562 76.082031 39.40625 C 75.671875 40.011719 75.09375 40.484375 74.417969 40.769531 C 73.5625 41.125 72.640625 41.296875 71.710938 41.273438 C 70.808594 41.273438 69.914062 41.140625 69.050781 40.878906 "/>
<path style=" stroke:none;fill-rule:nonzero;fill:rgb(255,255,255, 1);fill-opacity:1;" d="M 79.507812 40.878906 C 78.757812 40.675781 78.054688 40.332031 77.433594 39.863281 L 78.363281 37.753906 C 78.894531 38.164062 79.492188 38.480469 80.128906 38.6875 C 80.796875 38.914062 81.492188 39.03125 82.195312 39.03125 C 82.777344 39.078125 83.363281 38.953125 83.878906 38.675781 C 84.21875 38.488281 84.429688 38.132812 84.429688 37.742188 C 84.429688 37.46875 84.3125 37.203125 84.101562 37.023438 C 83.859375 36.816406 83.578125 36.664062 83.273438 36.566406 C 82.941406 36.457031 82.484375 36.324219 81.90625 36.183594 C 81.171875 36.011719 80.449219 35.796875 79.738281 35.53125 C 79.171875 35.3125 78.671875 34.949219 78.289062 34.476562 C 77.859375 33.925781 77.640625 33.234375 77.675781 32.535156 C 77.675781 31.875 77.867188 31.226562 78.222656 30.667969 C 78.632812 30.066406 79.207031 29.59375 79.878906 29.308594 C 80.730469 28.949219 81.652344 28.777344 82.578125 28.800781 C 83.308594 28.800781 84.035156 28.894531 84.746094 29.082031 C 85.402344 29.246094 86.03125 29.515625 86.605469 29.875 L 85.777344 32.011719 C 84.808594 31.417969 83.695312 31.09375 82.558594 31.078125 C 81.976562 31.035156 81.398438 31.164062 80.894531 31.453125 C 80.550781 31.671875 80.347656 32.054688 80.351562 32.460938 C 80.328125 32.875 80.578125 33.253906 80.96875 33.394531 C 81.566406 33.660156 82.1875 33.859375 82.828125 33.992188 C 83.5625 34.167969 84.289062 34.386719 84.996094 34.65625 C 85.574219 34.828125 86.09375 35.148438 86.511719 35.589844 C 86.945312 36.132812 87.160156 36.816406 87.117188 37.511719 C 87.117188 38.171875 86.925781 38.820312 86.566406 39.378906 C 86.152344 39.984375 85.570312 40.457031 84.894531 40.738281 C 84.039062 41.097656 83.121094 41.269531 82.195312 41.242188 C 81.292969 41.246094 80.398438 41.113281 79.535156 40.851562 "/>
<path style=" stroke:none;fill-rule:nonzero;fill:rgb(255,255,255, 1);fill-opacity:1;" d="M 96.1875 38.386719 C 96.734375 38.054688 97.1875 37.578125 97.488281 37.007812 C 98.121094 35.742188 98.121094 34.257812 97.488281 32.992188 C 97.011719 32.136719 96.210938 31.507812 95.269531 31.25 C 94.328125 30.988281 93.320312 31.121094 92.472656 31.613281 C 91.917969 31.941406 91.460938 32.417969 91.164062 32.992188 C 90.53125 34.257812 90.53125 35.742188 91.164062 37.007812 C 91.460938 37.582031 91.910156 38.058594 92.464844 38.386719 C 93.617188 39.054688 95.035156 39.054688 96.1875 38.386719 M 91.070312 40.449219 C 90.121094 39.929688 89.335938 39.15625 88.800781 38.210938 C 87.695312 36.214844 87.695312 33.785156 88.800781 31.789062 C 89.335938 30.84375 90.121094 30.070312 91.070312 29.550781 C 93.101562 28.453125 95.546875 28.453125 97.582031 29.550781 C 98.527344 30.074219 99.3125 30.847656 99.851562 31.789062 C 100.957031 33.785156 100.957031 36.214844 99.851562 38.210938 C 99.3125 39.152344 98.527344 39.925781 97.582031 40.449219 C 95.546875 41.546875 93.101562 41.546875 91.070312 40.449219 "/>
<path style=" stroke:none;fill-rule:nonzero;fill:rgb(255,255,255, 1);fill-opacity:1;" d="M 104.847656 40.460938 C 103.90625 39.949219 103.125 39.191406 102.585938 38.265625 C 101.496094 36.253906 101.496094 33.820312 102.585938 31.808594 C 103.121094 30.871094 103.902344 30.097656 104.847656 29.578125 C 105.828125 29.027344 106.941406 28.746094 108.066406 28.765625 C 109.007812 28.75 109.9375 28.941406 110.800781 29.324219 C 111.601562 29.679688 112.300781 30.226562 112.847656 30.910156 L 111.125 32.582031 C 110.429688 31.675781 109.347656 31.148438 108.203125 31.15625 C 107.53125 31.140625 106.863281 31.3125 106.277344 31.648438 C 105.71875 31.976562 105.261719 32.457031 104.957031 33.03125 C 104.324219 34.292969 104.324219 35.78125 104.957031 37.042969 C 105.261719 37.617188 105.71875 38.097656 106.277344 38.425781 C 106.863281 38.761719 107.53125 38.933594 108.203125 38.921875 C 109.347656 38.925781 110.429688 38.394531 111.125 37.484375 L 112.847656 39.144531 C 112.304688 39.839844 111.597656 40.394531 110.789062 40.75 C 109.929688 41.132812 108.996094 41.324219 108.054688 41.308594 C 106.933594 41.328125 105.828125 41.046875 104.847656 40.496094 "/>
<path style=" stroke:none;fill-rule:nonzero;fill:rgb(255,255,255, 1);fill-opacity:1;" d="M 114.371094 28.941406 L 117.058594 28.941406 L 117.058594 41.066406 L 114.371094 41.066406 Z M 114.371094 28.941406 "/>
<path style=" stroke:none;fill-rule:nonzero;fill:rgb(255,255,255, 1);fill-opacity:1;" d="M 126.605469 36.335938 L 124.746094 31.667969 L 122.882812 36.335938 Z M 127.449219 38.460938 L 122.054688 38.460938 L 121.023438 41.066406 L 118.234375 41.066406 L 123.414062 28.933594 L 126.066406 28.933594 L 131.253906 41.066406 L 128.464844 41.066406 Z M 127.449219 38.460938 "/>
<path style=" stroke:none;fill-rule:nonzero;fill:rgb(255,255,255, 1);fill-opacity:1;" d="M 133.246094 31.230469 L 129.535156 31.230469 L 129.535156 28.941406 L 139.65625 28.941406 L 139.65625 31.230469 L 135.933594 31.230469 L 135.933594 41.058594 L 133.246094 41.058594 Z M 133.246094 31.230469 "/>
<path style=" stroke:none;fill-rule:nonzero;fill:rgb(255,255,255, 1);fill-opacity:1;" d="M 141.210938 28.941406 L 143.898438 28.941406 L 143.898438 41.066406 L 141.210938 41.066406 Z M 141.210938 28.941406 "/>
<path style=" stroke:none;fill-rule:nonzero;fill:rgb(255,255,255, 1);fill-opacity:1;" d="M 153.90625 38.386719 C 154.457031 38.054688 154.90625 37.578125 155.210938 37.007812 C 155.828125 35.742188 155.828125 34.257812 155.210938 32.992188 C 154.90625 32.421875 154.457031 31.945312 153.90625 31.613281 C 152.753906 30.945312 151.335938 30.945312 150.1875 31.613281 C 149.636719 31.945312 149.1875 32.421875 148.882812 32.992188 C 148.25 34.257812 148.25 35.742188 148.882812 37.007812 C 149.1875 37.578125 149.636719 38.054688 150.1875 38.386719 C 151.335938 39.054688 152.753906 39.054688 153.90625 38.386719 M 148.78125 40.449219 C 147.832031 39.925781 147.046875 39.152344 146.511719 38.210938 C 145.417969 36.210938 145.417969 33.789062 146.511719 31.789062 C 147.046875 30.847656 147.832031 30.074219 148.78125 29.550781 C 149.78125 28.996094 150.90625 28.714844 152.046875 28.726562 C 153.179688 28.714844 154.300781 28.996094 155.292969 29.550781 C 156.242188 30.074219 157.027344 30.847656 157.570312 31.789062 C 158.675781 33.785156 158.675781 36.214844 157.570312 38.210938 C 157.027344 39.152344 156.242188 39.925781 155.292969 40.449219 C 154.300781 41.007812 153.183594 41.289062 152.046875 41.273438 C 150.90625 41.289062 149.777344 41.007812 148.78125 40.449219 "/>
<path style=" stroke:none;fill-rule:nonzero;fill:rgb(255,255,255, 1);fill-opacity:1;" d="M 170.585938 28.941406 L 170.585938 41.058594 L 168.382812 41.058594 L 162.585938 33.703125 L 162.585938 41.058594 L 159.933594 41.058594 L 159.933594 28.941406 L 162.15625 28.941406 L 167.933594 36.296875 L 167.933594 28.941406 Z M 170.585938 28.941406 "/>
<path style=" stroke:none;fill-rule:nonzero;fill:rgb(255,255,255, 1);fill-opacity:1;" d="M 185.03125 38.386719 C 185.585938 38.054688 186.035156 37.578125 186.335938 37.007812 C 186.96875 35.742188 186.96875 34.257812 186.335938 32.992188 C 186.035156 32.421875 185.585938 31.945312 185.03125 31.613281 C 183.882812 30.945312 182.460938 30.945312 181.3125 31.613281 C 180.757812 31.945312 180.308594 32.421875 180.007812 32.992188 C 179.378906 34.257812 179.378906 35.742188 180.007812 37.007812 C 180.308594 37.578125 180.757812 38.054688 181.3125 38.386719 C 182.460938 39.054688 183.882812 39.054688 185.03125 38.386719 M 179.917969 40.449219 C 178.96875 39.925781 178.183594 39.152344 177.648438 38.210938 C 176.542969 36.214844 176.542969 33.785156 177.648438 31.789062 C 178.183594 30.847656 178.96875 30.074219 179.917969 29.550781 C 181.949219 28.453125 184.394531 28.453125 186.429688 29.550781 C 187.375 30.074219 188.15625 30.847656 188.699219 31.789062 C 189.820312 33.78125 189.820312 36.21875 188.699219 38.210938 C 188.15625 39.152344 187.375 39.925781 186.429688 40.449219 C 184.394531 41.546875 181.949219 41.546875 179.917969 40.449219 "/>
<path style=" stroke:none;fill-rule:nonzero;fill:rgb(255,255,255, 1);fill-opacity:1;" d="M 193.917969 31.191406 L 193.917969 34.394531 L 199.285156 34.394531 L 199.285156 36.644531 L 193.917969 36.644531 L 193.917969 41.058594 L 191.226562 41.058594 L 191.226562 28.941406 L 200 28.941406 L 200 31.191406 Z M 193.917969 31.191406 "/>
<path style=" stroke:none;fill-rule:nonzero;fill:rgb(5.490196%,42.352941%,71.372549%);fill-opacity:1;" d="M 61.785156 49.605469 C 61.25 49.210938 60.589844 49.015625 59.925781 49.066406 L 57.75 49.066406 L 57.75 53.292969 L 59.945312 53.292969 C 60.613281 53.34375 61.273438 53.144531 61.804688 52.734375 C 62.636719 51.859375 62.636719 50.480469 61.804688 49.605469 M 62.484375 58.941406 L 60.242188 55.5625 L 57.75 55.5625 L 57.75 58.941406 L 55.058594 58.941406 L 55.058594 46.808594 L 60.09375 46.808594 C 61.015625 46.785156 61.929688 46.96875 62.773438 47.347656 C 63.492188 47.671875 64.101562 48.199219 64.519531 48.871094 C 65.351562 50.3125 65.351562 52.09375 64.519531 53.535156 C 64.09375 54.199219 63.476562 54.71875 62.753906 55.03125 L 65.359375 58.929688 Z M 62.484375 58.941406 "/>
<path style=" stroke:none;fill-rule:nonzero;fill:rgb(5.490196%,42.352941%,71.372549%);fill-opacity:1;" d="M 76.019531 56.652344 L 76.019531 58.902344 L 67.023438 58.902344 L 67.023438 46.777344 L 75.796875 46.777344 L 75.796875 49.027344 L 69.691406 49.027344 L 69.691406 51.660156 L 75.089844 51.660156 L 75.089844 53.84375 L 69.691406 53.84375 L 69.691406 56.652344 Z M 76.019531 56.652344 "/>
<path style=" stroke:none;fill-rule:nonzero;fill:rgb(5.490196%,42.352941%,71.372549%);fill-opacity:1;" d="M 85.105469 54.132812 L 83.246094 49.464844 L 81.386719 54.132812 Z M 85.953125 56.261719 L 80.566406 56.261719 L 79.535156 58.902344 L 76.746094 58.902344 L 81.925781 46.769531 L 84.652344 46.769531 L 89.84375 58.902344 L 87.050781 58.902344 Z M 85.953125 56.261719 "/>
<path style=" stroke:none;fill-rule:nonzero;fill:rgb(5.490196%,42.352941%,71.372549%);fill-opacity:1;" d="M 90.847656 46.777344 L 93.535156 46.777344 L 93.535156 56.617188 L 99.359375 56.617188 L 99.359375 58.902344 L 90.847656 58.902344 Z M 90.847656 46.777344 "/>
<path style=" stroke:none;fill-rule:nonzero;fill:rgb(5.490196%,42.352941%,71.372549%);fill-opacity:1;" d="M 101.609375 49.066406 L 97.886719 49.066406 L 97.886719 46.777344 L 108.007812 46.777344 L 108.007812 49.066406 L 104.296875 49.066406 L 104.296875 58.902344 L 101.609375 58.902344 Z M 101.609375 49.066406 "/>
<path style=" stroke:none;fill-rule:nonzero;fill:rgb(5.490196%,42.352941%,71.372549%);fill-opacity:1;" d="M 116.503906 56.222656 C 117.054688 55.898438 117.507812 55.421875 117.804688 54.851562 C 118.4375 53.585938 118.4375 52.09375 117.804688 50.828125 C 117.507812 50.257812 117.054688 49.78125 116.503906 49.457031 C 115.351562 48.789062 113.933594 48.789062 112.78125 49.457031 C 112.226562 49.78125 111.777344 50.257812 111.480469 50.828125 C 110.847656 52.09375 110.847656 53.585938 111.480469 54.851562 C 111.777344 55.421875 112.226562 55.898438 112.78125 56.222656 C 113.933594 56.890625 115.351562 56.890625 116.503906 56.222656 M 111.386719 58.296875 C 110.4375 57.773438 109.648438 56.992188 109.117188 56.046875 C 108.023438 54.046875 108.023438 51.625 109.117188 49.625 C 109.652344 48.683594 110.4375 47.910156 111.386719 47.386719 C 112.386719 46.835938 113.511719 46.554688 114.652344 46.574219 C 115.785156 46.554688 116.90625 46.835938 117.898438 47.386719 C 118.84375 47.910156 119.628906 48.683594 120.167969 49.625 C 121.289062 51.617188 121.289062 54.054688 120.167969 56.046875 C 119.632812 56.992188 118.847656 57.773438 117.898438 58.296875 C 116.90625 58.847656 115.785156 59.125 114.652344 59.109375 C 113.511719 59.125 112.386719 58.84375 111.386719 58.296875 "/>
<path style=" stroke:none;fill-rule:nonzero;fill:rgb(5.490196%,42.352941%,71.372549%);fill-opacity:1;" d="M 129.414062 49.605469 C 128.878906 49.203125 128.21875 49.011719 127.554688 49.066406 L 125.367188 49.066406 L 125.367188 53.292969 L 127.554688 53.292969 C 128.222656 53.347656 128.886719 53.144531 129.414062 52.734375 C 130.257812 51.863281 130.257812 50.476562 129.414062 49.605469 M 130.09375 58.941406 L 127.851562 55.5625 L 125.386719 55.5625 L 125.386719 58.941406 L 122.699219 58.941406 L 122.699219 46.808594 L 127.722656 46.808594 C 128.644531 46.78125 129.558594 46.96875 130.398438 47.347656 C 131.121094 47.667969 131.730469 48.199219 132.148438 48.871094 C 132.570312 49.574219 132.785156 50.382812 132.761719 51.203125 C 132.785156 52.023438 132.570312 52.835938 132.140625 53.535156 C 131.710938 54.199219 131.097656 54.71875 130.371094 55.03125 L 132.976562 58.929688 Z M 130.09375 58.941406 "/>
<path style=" stroke:none;fill-rule:nonzero;fill:rgb(5.490196%,42.352941%,71.372549%);fill-opacity:1;" d="M 135.871094 58.714844 C 135.125 58.511719 134.425781 58.167969 133.804688 57.707031 L 134.734375 55.589844 C 135.273438 55.992188 135.875 56.308594 136.511719 56.523438 C 137.175781 56.746094 137.867188 56.863281 138.566406 56.867188 C 139.152344 56.90625 139.738281 56.785156 140.261719 56.511719 C 140.597656 56.324219 140.808594 55.96875 140.808594 55.578125 C 140.8125 55.304688 140.691406 55.039062 140.484375 54.863281 C 140.242188 54.652344 139.960938 54.496094 139.65625 54.394531 C 139.320312 54.28125 138.863281 54.152344 138.289062 54.019531 C 137.550781 53.84375 136.824219 53.625 136.113281 53.359375 C 135.535156 53.128906 135.027344 52.753906 134.640625 52.265625 C 134.21875 51.710938 134.003906 51.023438 134.039062 50.324219 C 134.039062 49.664062 134.230469 49.015625 134.585938 48.457031 C 134.992188 47.851562 135.566406 47.382812 136.242188 47.105469 C 137.089844 46.746094 138.007812 46.574219 138.929688 46.601562 C 139.664062 46.601562 140.394531 46.691406 141.105469 46.871094 C 141.765625 47.039062 142.394531 47.308594 142.96875 47.675781 L 142.140625 49.800781 C 141.171875 49.207031 140.058594 48.882812 138.921875 48.871094 C 138.335938 48.828125 137.753906 48.960938 137.246094 49.253906 C 136.910156 49.472656 136.707031 49.847656 136.707031 50.25 C 136.703125 50.660156 136.953125 51.03125 137.332031 51.183594 C 137.945312 51.445312 138.582031 51.648438 139.238281 51.78125 C 139.972656 51.953125 140.695312 52.171875 141.40625 52.433594 C 141.964844 52.65625 142.464844 53.011719 142.855469 53.46875 C 143.289062 54.015625 143.503906 54.699219 143.460938 55.394531 C 143.460938 56.054688 143.269531 56.703125 142.910156 57.261719 C 142.5 57.871094 141.917969 58.34375 141.238281 58.621094 C 140.382812 58.980469 139.464844 59.152344 138.539062 59.125 C 137.636719 59.128906 136.734375 58.996094 135.871094 58.734375 "/>
<path style=" stroke:none;fill-rule:nonzero;fill:rgb(5.490196%,42.352941%,71.372549%);fill-opacity:1;" d="M 148.121094 49.644531 C 148.308594 49.652344 148.496094 49.597656 148.652344 49.484375 C 148.777344 49.371094 148.847656 49.207031 148.835938 49.039062 C 148.84375 48.863281 148.777344 48.699219 148.652344 48.578125 C 148.496094 48.46875 148.308594 48.414062 148.121094 48.421875 L 147.554688 48.421875 L 147.554688 49.644531 Z M 149.648438 49.765625 C 149.519531 49.976562 149.335938 50.144531 149.117188 50.25 L 149.933594 51.558594 L 148.929688 51.558594 L 148.222656 50.398438 L 147.5625 50.398438 L 147.5625 51.53125 L 146.558594 51.53125 L 146.558594 47.648438 L 148.1875 47.648438 C 148.617188 47.621094 149.046875 47.753906 149.386719 48.019531 C 149.679688 48.273438 149.839844 48.648438 149.824219 49.039062 C 149.832031 49.292969 149.769531 49.542969 149.648438 49.765625 M 149.433594 52.117188 C 149.851562 51.859375 150.195312 51.496094 150.429688 51.0625 C 150.671875 50.605469 150.796875 50.097656 150.789062 49.578125 C 150.796875 49.066406 150.675781 48.558594 150.4375 48.105469 C 150.214844 47.675781 149.875 47.316406 149.460938 47.066406 C 148.820312 46.683594 148.050781 46.578125 147.328125 46.777344 C 146.609375 46.976562 146 47.460938 145.648438 48.121094 C 145.402344 48.574219 145.277344 49.082031 145.285156 49.597656 C 145.277344 50.113281 145.402344 50.621094 145.648438 51.070312 C 145.875 51.503906 146.210938 51.867188 146.625 52.125 C 147.046875 52.382812 147.535156 52.515625 148.027344 52.507812 C 148.523438 52.515625 149.011719 52.378906 149.433594 52.117188 M 149.777344 46.515625 C 150.292969 46.824219 150.71875 47.265625 151.003906 47.796875 C 151.605469 48.925781 151.605469 50.28125 151.003906 51.40625 C 150.710938 51.933594 150.285156 52.375 149.765625 52.6875 C 148.699219 53.320312 147.375 53.320312 146.308594 52.6875 C 145.804688 52.371094 145.394531 51.925781 145.117188 51.398438 C 144.820312 50.84375 144.664062 50.226562 144.667969 49.597656 C 144.664062 48.972656 144.816406 48.355469 145.117188 47.804688 C 145.402344 47.265625 145.832031 46.816406 146.351562 46.507812 C 146.878906 46.195312 147.480469 46.035156 148.09375 46.042969 C 148.699219 46.03125 149.300781 46.191406 149.824219 46.5 "/>
<path style=" stroke:none;fill-rule:nonzero;fill:rgb(5.490196%,42.352941%,71.372549%);fill-opacity:1;" d="M 42.910156 11.058594 L 0 11.058594 L 0 58.988281 L 42.910156 58.988281 Z M 18.316406 52.359375 L 6.121094 52.359375 L 6.121094 17.371094 L 18.34375 17.371094 Z M 27.765625 17.40625 C 30.148438 17.363281 32.445312 18.304688 34.117188 20.007812 C 35.789062 21.707031 36.691406 24.023438 36.613281 26.414062 C 36.613281 33.375 30.605469 34.925781 27.738281 34.886719 L 22.976562 34.886719 L 22.976562 17.414062 Z M 22.976562 52.445312 L 22.976562 35.113281 L 39.722656 52.445312 Z M 22.976562 52.445312 "/>
</g>
</svg>
