<svg width="583" height="150" viewBox="0 0 583 150" fill="none" xmlns="http://www.w3.org/2000/svg">
<g clip-path="url(#clip0_921_3)">
<path d="M164.378 25.795C166.778 25.1951 172.777 25.1951 178.176 25.1951C190.774 25.1951 199.173 29.3944 199.173 39.5928C198.573 51.5909 186.575 58.7897 168.578 58.7897H161.979C157.179 58.7897 158.379 52.7905 158.379 52.7905L164.378 25.795ZM224.369 98.9832C224.369 78.5867 209.971 68.9879 197.973 68.3884C212.97 65.9884 232.767 55.1901 232.767 34.7936C232.767 13.197 211.171 1.79883 178.176 1.79883C163.179 1.79883 148.781 2.99864 136.183 5.39828L112.787 109.182C112.787 109.182 104.388 136.177 127.784 141.576C134.383 143.376 138.582 143.976 145.781 143.976C206.372 147.576 224.369 119.98 224.369 98.9832ZM144.582 114.581L152.38 80.3862H163.179C178.176 80.3862 190.774 84.5854 190.174 98.3832C189.574 113.981 173.977 120.58 155.98 120.58C152.98 120.58 150.581 120.58 148.181 120.58C143.382 119.98 144.582 114.581 144.582 114.581Z" fill="white"/>
<path d="M415.745 26.9955C418.745 26.3956 422.944 26.3956 429.544 26.3956C441.54 26.3956 451.74 29.995 451.74 44.3925C451.74 59.3904 440.34 73.7882 418.145 73.7882C416.945 73.7882 415.145 73.7882 413.946 73.7882C404.347 73.7882 406.746 65.3895 406.746 65.3895L415.745 26.9955ZM373.752 144.577C378.551 144.577 388.149 142.777 391.149 128.379C393.548 116.981 397.748 97.7843 397.748 97.7843C401.347 97.7843 405.547 98.3839 410.946 98.3839C463.136 98.3839 481.736 64.7895 481.736 41.9931C481.736 16.7971 464.336 2.99932 426.543 2.39941C410.946 2.39941 397.748 2.99932 385.15 5.99884L354.555 144.577H373.752Z" fill="white"/>
<path d="M277.162 83.3861C277.162 60.5899 291.56 26.9952 325.154 26.9952C334.153 26.9952 349.75 29.3948 358.749 37.1936C358.749 37.1936 362.348 25.7954 362.948 20.9962C364.148 16.1969 362.348 8.39814 347.951 4.19883C338.352 1.19931 331.153 -0.000488281 320.955 -0.000488281C268.763 -0.000488281 241.168 43.1925 241.168 85.7856C241.168 131.378 271.763 146.376 302.358 146.376C313.756 146.376 320.955 145.176 327.554 142.777C335.952 139.777 337.752 131.978 337.752 131.978L343.152 108.582C329.953 118.18 320.355 119.98 311.356 119.98C290.36 118.78 277.162 104.983 277.162 83.3861Z" fill="white"/>
<path d="M94.1923 49.7926C95.3919 50.9922 107.99 66.5896 95.9919 85.187C83.394 105.584 48.5996 128.38 39.0009 131.979C19.804 139.778 7.20604 125.381 6.00621 123.581C2.40679 118.781 1.80689 118.181 0.00717291 114.582C-0.592731 115.182 36.6013 97.7849 49.7991 75.5883C64.197 56.3913 65.3966 19.1974 49.7991 11.9985C54.5983 14.3981 65.3966 20.9971 75.5953 29.9957C85.7936 38.9942 94.1923 49.7926 94.1923 49.7926Z" fill="#808080"/>
<path d="M55.7991 64.7889C64.1978 44.9919 62.3978 17.9963 49.8 12.5971C37.8018 7.19803 24.604 22.7955 24.0041 23.9953C24.0041 23.9953 19.8048 29.3945 16.2053 37.1932C18.6049 38.393 22.8043 40.7926 22.8043 40.7926C31.8028 44.3919 44.4008 52.1907 55.7991 64.7889Z" fill="white"/>
<path d="M575.914 49.7926C577.11 50.9922 589.71 66.5896 577.71 85.187C565.114 105.584 530.319 128.38 520.723 131.979C501.523 139.778 488.927 125.381 487.727 123.581C484.127 118.781 483.527 118.181 481.727 114.582C481.127 115.182 518.323 97.7849 531.519 75.5883C545.919 56.3913 547.119 19.1974 531.519 11.9985C536.319 14.3981 547.119 20.9971 557.314 29.9957C567.514 38.9942 575.914 49.7926 575.914 49.7926Z" fill="#808080"/>
<path d="M537.519 64.7889C545.919 44.9919 544.119 17.9963 531.519 12.5971C519.523 7.19803 506.323 22.7955 505.723 23.9953C505.723 23.9953 501.523 29.3945 497.927 37.1932C500.327 38.393 504.523 40.7926 504.523 40.7926C513.523 44.3919 526.123 52.1907 537.519 64.7889Z" fill="white"/>
</g>
<defs>
<clipPath id="clip0_921_3">
<rect width="582.857" height="150" fill="white"/>
</clipPath>
</defs>
</svg>
