<svg width="418" height="150" viewBox="0 0 418 150" fill="none" xmlns="http://www.w3.org/2000/svg">
<g clip-path="url(#clip0_921_30)">
<path d="M283.7 108.5H283.6C265.8 121.1 244.8 134.3 222.1 148.2L221.2 148.7C221.102 148.74 221.014 148.802 220.944 148.881C220.873 148.96 220.821 149.054 220.792 149.156C220.763 149.258 220.758 149.366 220.777 149.47C220.795 149.575 220.837 149.673 220.9 149.759C220.962 149.845 221.043 149.915 221.137 149.965C221.23 150.015 221.334 150.043 221.44 150.047C221.546 150.051 221.651 150.031 221.748 149.988C221.845 149.945 221.931 149.881 222 149.8L222.7 149.4C242 139.4 264.1 127.5 286.3 115.2L286.7 115C285.39 112.99 284.379 110.801 283.7 108.5ZM400.5 13.8998C372.5 -17.0002 191.9 10.7998 115.2 27.5998L113.4 27.9998C113.224 28.0452 113.069 28.1491 112.96 28.2945C112.851 28.4399 112.794 28.6182 112.8 28.7998C112.81 28.8901 112.84 28.9771 112.888 29.054C112.936 29.131 113.001 29.196 113.078 29.2442C113.156 29.2923 113.242 29.3224 113.333 29.332C113.423 29.3416 113.514 29.3306 113.6 29.2998L115.4 28.9998C179 17.6998 311.3 1.99983 339.7 30.1998C348.4 38.7998 346.4 49.8998 336.3 62.9998C341.875 66.6423 345.819 72.3069 347.3 78.7998C386.6 52.6998 413 27.6998 400.5 13.8998Z" fill="#808080"/>
<path d="M295.1 100.4C295.4 111.3 302.3 120.2 311.3 120.2C328.7 120.2 336.1 98.8002 335.6 84.5002C335.2 73.6002 328.2 64.7002 319.2 64.7002C304.2 64.7002 294.5 86.0002 295.1 100.4ZM285.9 99.8002C285.2 81.2002 299.8 62.2002 320.9 62.2002C335.1 62.2002 344.3 71.7002 344.8 86.1002C345.5 105.7 331.9 123.7 309.8 123.7C295.6 123.7 286.4 114.3 285.9 99.8002Z" fill="white"/>
<path d="M85.5 94.9001C84.5676 95.2781 83.5944 95.5466 82.6 95.7001L76 96.9001C74.381 97.0152 72.8087 97.4937 71.4 98.3001C70.995 98.5481 70.6502 98.8832 70.3908 99.281C70.1313 99.6789 69.9637 100.129 69.9 100.6C69.7971 101.04 69.8388 101.501 70.019 101.916C70.1991 102.33 70.5081 102.675 70.9 102.9C72.1781 103.615 73.6414 103.928 75.1 103.8C76.5919 103.771 78.0726 103.535 79.5 103.1C80.8155 102.715 82.0399 102.069 83.1 101.2C83.8009 100.585 84.3197 99.7895 84.6 98.9001C85.0854 97.6154 85.3883 96.2689 85.5 94.9001ZM103.9 83.5001C103.8 85.2001 103.5 86.7001 103.1 89.3001L100 106.7C99.8351 107.404 99.9133 108.143 100.222 108.797C100.531 109.45 101.052 109.98 101.7 110.3V111H83.8V106.6C81.0827 108.13 78.1966 109.338 75.2 110.2C72.4293 110.949 69.57 111.319 66.7 111.3C60.9 111.3 57.6 110.7 55.4 108.7C53.2 106.7 51.9 105.3 52 102.4C52.2148 100.52 52.9802 98.7462 54.2 97.3001C55.5018 95.8396 57.1055 94.6795 58.9 93.9001C61.2033 92.9247 63.6236 92.2524 66.1 91.9001C69.2 91.4001 73.6 90.9001 79.5 90.4001C81.4985 90.34 83.4671 89.8988 85.3 89.1001C86.6 88.6001 87 88.1001 87.2 87.1001C87.4 86.1001 87 84.3001 84.6 83.8001C78.2 82.6001 66.2 84.6001 60 86.2001L63.3 77.1001C71.2067 75.8467 79.195 75.1782 87.2 75.1001C99.9 75.1001 104 78.8001 103.9 83.5001Z" fill="white"/>
<path d="M155.5 111L161.7 76.0999H178.8L172.6 111H155.5ZM162.7 68.0999C163.2 65.1999 167.7 62.8999 172.8 62.8999C177.9 62.8999 181.5 65.1999 181 68.0999C180.5 70.9999 176 73.2999 170.9 73.2999C165.8 73.2999 162.2 70.8999 162.7 68.0999Z" fill="white"/>
<path d="M239.3 95.0001L236.4 95.8001L229.7 97.0001C228.115 97.1298 226.579 97.6079 225.2 98.4001C224.797 98.6266 224.453 98.943 224.192 99.3246C223.932 99.7062 223.764 100.143 223.7 100.6C223.58 101.044 223.603 101.514 223.764 101.945C223.926 102.375 224.218 102.744 224.6 103C225.5 103.6 226.9 103.8 228.9 103.8C230.387 103.804 231.868 103.602 233.3 103.2C234.615 102.815 235.84 102.169 236.9 101.3C237.601 100.685 238.12 99.8895 238.4 99.0001C238.822 97.6971 239.123 96.3581 239.3 95.0001ZM257.7 83.5001C257.6 85.2001 257.3 86.8001 256.9 89.3001L253.8 106.8C253.635 107.504 253.713 108.243 254.022 108.897C254.331 109.55 254.852 110.08 255.5 110.4V111H237.6V106.5C234.907 108.103 232.015 109.346 229 110.2C226.191 110.919 223.299 111.255 220.4 111.2C214.7 111.2 211.4 110.6 209.1 108.6C206.8 106.6 205.7 105.2 205.8 102.4C205.989 100.484 206.757 98.6704 208 97.2001C209.308 95.7709 210.912 94.6447 212.7 93.9001C214.957 92.8915 217.349 92.2177 219.8 91.9001C223 91.4001 227.4 90.9001 233.3 90.4001C235.28 90.2088 237.228 89.7721 239.1 89.1001C240.3 88.6001 240.8 88.1001 241 87.1001C241.2 86.1001 240.8 84.3001 238.4 83.8001C232 82.5001 220 84.6001 213.8 86.1001L217.1 77.1001C225.006 75.8427 232.995 75.1742 241 75.1001C253.7 75.2001 257.8 78.9001 257.7 83.5001Z" fill="white"/>
<path d="M49.5999 98.5C44.9397 99.5425 40.1751 100.046 35.3999 100C27.2999 100 20.7999 96 21.1999 88.5C21.3999 83.6 27.2999 73.2 42.0999 73.2C46.7878 73.0916 51.4068 74.3419 55.3999 76.8L57.4999 64.7C52.1634 62.5804 46.4355 61.6258 40.6999 61.9C21.1999 62.1 2.49994 70.9 0.199943 88.9C-2.10006 106.9 20.1999 111.8 30.0999 111.8C35.7999 111.8 41.7999 111.5 47.2999 111L49.5999 98.5Z" fill="white"/>
<path d="M188.2 75.9L189.4 68.8L207.2 65L205.3 75.9H214.1L212.4 83H203.9L198.8 111H181.5L186.7 83H180.2L181.5 76H188.2V75.9Z" fill="white"/>
<path d="M275 111H257.6L266.4 62.3999L283.3 62.7999L275 111Z" fill="white"/>
<path d="M133 84.2998C130.807 84.3065 128.672 85.0066 126.9 86.2998C125.085 87.8138 123.907 89.956 123.6 92.2998C123 95.3998 123.3 97.4998 124.5 98.8998C125.199 99.5791 126.03 100.107 126.942 100.451C127.854 100.795 128.827 100.948 129.8 100.9C131.315 100.93 132.818 100.623 134.2 99.9998C135.534 99.383 136.674 98.4152 137.5 97.1998C138.435 95.8093 139.081 94.245 139.4 92.5998C139.9 89.7998 139.5 87.7998 138.2 86.3998C137.536 85.6949 136.728 85.1421 135.83 84.7796C134.933 84.417 133.967 84.2534 133 84.2998ZM101.9 123.1L110.2 76.2998H125.2L124 82.2998C125.643 80.2452 127.824 78.6873 130.3 77.7998C133.382 76.5407 136.671 75.8627 140 75.7998C143.9 75.7998 146.3 75.9998 149.2 77.4998C151.949 78.8794 154.088 81.2317 155.2 84.0998C156.378 87.1228 156.656 90.4223 156 93.5998C155.584 96.328 154.626 98.9455 153.184 101.298C151.741 103.651 149.843 105.691 147.6 107.3C143 110.6 138.9 111.5 133 111.5C131.215 111.533 129.433 111.331 127.7 110.9C126.508 110.64 125.361 110.202 124.3 109.6C123.263 108.852 122.323 107.979 121.5 107L118.7 123.1H101.9Z" fill="white"/>
<path d="M411.5 88.5999C411.4 85.7999 410 83.8999 407.1 83.8999C400.1 83.8999 392.7 97.5999 391.4 103.1C402.8 103.1 411.8 96.2999 411.5 88.5999ZM413 110.1L414.3 111C410.9 117.9 404 123.5 395.8 123.5C389.1 123.5 383.7 119.1 383.4 110.8C382.8 95.7999 396.9 81.8999 408.3 81.8999C413.2 81.8999 417.8 84.0999 418 89.3999C418.4 101.3 401.7 104.9 390.7 105.1C390.34 106.537 390.205 108.021 390.3 109.5C390.5 114.5 393.5 118.6 399.6 118.6C405.7 118.6 410.3 114.3 413 110.1Z" fill="white"/>
<path d="M344.6 88.1999L348.5 87.7999C349.8 87.7999 350.9 88.0999 351 89.2999C351.1 90.4999 349.7 95.2999 349.4 96.5999L346.7 108.3C345.7 113.1 344.5 118.1 343.5 122.1H350.3L354.1 103.5C365.9 91.2999 370.4 87.2999 373.1 87.2999C373.397 87.2684 373.697 87.3037 373.978 87.4031C374.259 87.5025 374.514 87.6636 374.725 87.8745C374.936 88.0854 375.097 88.3409 375.197 88.6221C375.296 88.9034 375.331 89.2033 375.3 89.4999C375.4 91.5999 374 96.4999 373.6 97.8999L369.6 111.4C368.8 114.5 368.1 117.2 368.2 119.2C368.3 121.2 370.1 123.5 372.7 123.5C377.7 123.5 381.4 118.3 384.5 113.2L383.6 111.5C382.3 113.5 379.4 118 377 118C376.3 118 375.6 117.5 375.6 116.3C375.681 114.43 376.017 112.579 376.6 110.8L381 94.8999C382.1 90.4999 382.7 87.6999 382.7 86.1999C382.7 84.6999 380.8 81.8999 378.2 81.8999C373.7 81.8999 367.7 85.1999 355.1 99.6999H354.9L356.5 92.5999C357.4 88.6999 358.2 84.6999 359 81.8999C354.262 83.5835 349.418 84.9531 344.5 85.9999L344.6 88.1999Z" fill="white"/>
</g>
<defs>
<clipPath id="clip0_921_30">
<rect width="418" height="150" fill="white"/>
</clipPath>
</defs>
</svg>
