<svg width="791" height="147" viewBox="0 0 791 147" fill="none" xmlns="http://www.w3.org/2000/svg">
<path fill-rule="evenodd" clip-rule="evenodd" d="M111.993 44.639H99.3995C95.8225 32.0527 85.036 22.1524 71.4105 18.9671V12.4416C91.563 15.5236 107.568 28.282 111.993 44.639ZM23.3979 56.1235C24.6332 74.0985 40.158 88.4755 59.518 89.612V56.1235H23.3979ZM64.441 23.4438V51.457H123.977V56.1235H113.135C111.808 75.6825 94.292 91.6435 71.4105 95.139V88.6135C87.433 84.877 99.4915 71.8775 100.598 56.1235H64.441V84.705H64.404V101.371H64.441V106.727H59.5365V95.845C33.299 94.829 12.2244 77.6285 10.8046 56.1235H0V51.457H59.518V17.9513C42.684 18.9327 28.7633 29.9522 24.5778 44.639H11.9847C16.9076 26.4397 36.1569 12.6826 59.5365 11.7701V0.854004H64.441V6.79415H64.404V23.4438H64.441ZM190.225 53.351V51.423H163.674V53.351C166.366 53.351 169.077 54.4185 169.077 56.175V141.833C169.077 143.727 166.366 144.658 163.674 144.658V146.585H190.225V144.658C187.533 144.658 184.823 143.676 184.823 141.833V56.175C184.823 54.281 187.533 53.351 190.225 53.351ZM488.773 129.437L489.603 141.145C496.13 143.866 504.89 145.777 512.355 145.777C534.535 145.777 544.42 136.238 544.42 127.233C544.42 115.738 531.96 111.83 520.415 108.209C510.45 105.083 501.165 102.172 501.165 94.7775C501.165 88.9235 508.245 85.7895 515.695 85.7895C527.64 85.7895 534.555 87.6145 536.825 95.139H539.22L539.015 85.3765C531.75 82.656 523.73 81.4165 517.76 81.4165C497.255 81.4165 488.866 91.2305 488.866 98.858C488.866 110.687 500.67 114.642 511.555 118.29C520.875 121.413 529.52 124.31 529.52 131.727C529.52 136.513 525.41 141.421 514.4 141.421C500.815 141.421 493.807 137.494 490.617 129.144L488.773 129.437ZM365.405 85.5315V83.603H388.655V85.5315C386.037 85.5315 382.644 86.3235 379.915 90.5075L346.044 146.001L313.317 91.6265C310.385 86.9605 307.601 85.514 303.545 85.514V83.586H335.849V85.514C332.106 85.514 329.377 87.5285 330.317 90.3525L350.507 126.424L370.825 90.817C372.466 87.787 369.627 85.5315 365.405 85.5315ZM290.066 141.834L290.048 113.149H290.066V100.219C290.066 88.3895 276.478 81.7265 262.502 81.7265C250.591 81.7265 239.786 87.9765 235.693 91.179V82.2775H235.656C235.656 81.124 235.066 80.814 234.494 80.814C231.489 81.8285 229.06 82.663 226.811 83.4355C222.535 84.9045 218.915 86.1485 213.235 87.9765V89.457C217.882 89.7155 219.32 92.0915 219.762 95.1905V141.834C219.762 143.9 217.052 144.658 214.36 144.658V146.586H240.984V144.658C238.293 144.658 235.583 143.676 235.583 141.834V96.723H235.712V96.4995C239.233 93.297 246.7 89.5775 254.518 89.5775C270.909 89.5775 274.266 97.6875 274.266 105.005L274.228 141.868C274.228 143.883 271.5 144.623 268.845 144.623V146.551H295.487V144.623C292.795 144.658 290.066 143.969 290.066 141.834ZM452.155 104.35C452.155 91.454 442.291 86.53 432.039 86.53C418.45 86.53 411.186 95.173 409.693 104.35H452.155ZM438.29 139.458C443.803 139.458 448.707 138.82 452.985 137.529C457.262 136.237 462.26 133.861 468.031 130.383L468.141 135.308C462.628 139.509 457.17 142.436 451.805 144.106C446.421 145.777 440.097 146.603 432.814 146.603C424.885 146.603 417.75 145.122 411.389 142.16C405.028 139.216 400.179 134.998 396.694 129.626C393.597 124.856 391.844 118.796 391.937 113.665C392.195 99.1675 405.802 81.7435 434.308 81.7435C450.127 81.7435 469.302 89.5945 469.302 109.274H408.974V112.993C409.195 118.934 411.555 127.095 417.51 132.191C423.337 137.15 430.38 139.458 438.29 139.458ZM666.535 86.53C676.765 86.53 686.65 91.454 686.65 104.35H644.185C645.68 95.173 652.945 86.53 666.535 86.53ZM687.48 137.529C683.2 138.82 678.295 139.458 672.785 139.458C664.875 139.458 657.815 137.15 651.985 132.191C646.03 127.095 643.67 118.934 643.43 112.993V109.274H703.78C703.78 89.5945 684.585 81.7435 668.765 81.7435C640.28 81.7435 626.65 99.1675 626.395 113.665C626.3 118.796 628.055 124.856 631.135 129.626C634.62 134.998 639.465 139.216 645.83 142.16C652.19 145.122 659.345 146.603 667.27 146.603C674.555 146.603 680.88 145.777 686.265 144.106C691.63 142.436 697.085 139.509 702.6 135.308L702.49 130.383C696.77 133.861 691.755 136.237 687.48 137.529ZM615.275 136.874L615.61 139.044C613.91 140.404 612.195 141.403 610.595 142.316C607.275 144.193 601.835 145.88 596.71 145.897C581.905 145.949 570.99 139.458 570.99 126.837V126.441C570.99 126.424 570.97 126.389 570.97 126.354H570.99V88.854H560.625L560.535 83.379H570.95L570.935 71.0855L587.065 71.1025V83.327H612.605V88.854H586.695V126.699C586.695 139.061 597.795 140.56 603.53 140.37C607.995 140.215 612.99 138.028 615.275 136.874ZM790.66 130.177C786.125 133.07 782.065 135.153 778.47 136.531C774.505 137.822 769.715 138.751 764.055 138.751C744.34 138.751 734.68 126.028 734.68 112.34C734.68 100.425 742.63 86.4785 760.845 86.4785C772.315 86.4785 782.915 92.2805 786.99 99.357H790.675V87.5975L790.65 87.583C789.95 87.243 777.855 81.33 761.785 81.33C730.35 81.33 717.625 100.838 717.625 114.096C717.625 116.816 718.05 119.606 718.915 122.36H718.825C719.08 123.101 719.375 123.824 719.69 124.564C721.02 127.904 723.01 131.141 725.685 134.068C728.56 137.271 732.08 139.905 736.285 141.954C741.335 144.416 746.885 145.845 752.97 146.293C754.945 146.482 756.99 146.603 759.15 146.603C765.51 146.603 770.78 145.553 775.095 143.969C775.15 143.952 775.21 143.934 775.28 143.917C780.35 142.264 785.48 139.406 790.675 135.291V130.177H790.66Z" fill="white"/>
</svg>
