<svg width="539" height="150" viewBox="0 0 539 150" fill="none" xmlns="http://www.w3.org/2000/svg">
<g clip-path="url(#clip0_921_20)">
<path d="M531.792 93.2918C530.452 93.2918 529.142 93.6894 528.028 94.4343C526.914 95.1793 526.046 96.238 525.534 97.4764C525.022 98.7148 524.89 100.077 525.153 101.391C525.415 102.705 526.062 103.912 527.011 104.858C527.96 105.804 529.169 106.447 530.484 106.706C531.798 106.965 533.16 106.828 534.397 106.312C535.634 105.796 536.69 104.925 537.432 103.809C538.173 102.693 538.567 101.382 538.563 100.042C538.568 99.1521 538.397 98.2701 538.058 97.4473C537.719 96.6244 537.221 95.8772 536.59 95.249C535.96 94.6208 535.212 94.1243 534.388 93.7883C533.564 93.4522 532.681 93.2835 531.792 93.2918ZM531.792 105.792C530.632 105.8 529.496 105.464 528.528 104.826C527.56 104.187 526.803 103.276 526.353 102.207C525.904 101.138 525.782 99.9596 526.003 98.8213C526.224 97.683 526.779 96.636 527.596 95.8131C528.413 94.9902 529.456 94.4285 530.593 94.1992C531.729 93.9699 532.908 94.0834 533.981 94.5252C535.053 94.9671 535.969 95.7173 536.615 96.6809C537.26 97.6445 537.604 98.778 537.604 99.9376C537.629 100.715 537.497 101.489 537.216 102.213C536.935 102.938 536.51 103.599 535.967 104.155C535.424 104.711 534.775 105.153 534.057 105.452C533.34 105.751 532.569 105.902 531.792 105.896V105.792Z" fill="white"/>
<path d="M534.729 102.146C534.714 101.733 534.576 101.334 534.333 101C534.184 100.797 533.994 100.627 533.775 100.501C533.556 100.376 533.313 100.297 533.062 100.271C533.439 100.233 533.802 100.112 534.125 99.9169C534.363 99.7581 534.555 99.54 534.683 99.2843C534.811 99.0286 534.87 98.744 534.854 98.4585C534.893 98.0613 534.802 97.6622 534.595 97.3207C534.389 96.9791 534.078 96.7133 533.708 96.5627C533.035 96.3502 532.33 96.2585 531.625 96.2918H529.083V103.729H530.375V100.854H531.417C531.914 100.823 532.412 100.901 532.875 101.084C533.604 101.521 533.562 102.459 533.583 103.292C533.551 103.45 533.551 103.613 533.583 103.771H534.792C534.723 103.621 534.687 103.457 534.688 103.292C534.729 102.938 534.729 102.75 534.729 102.146ZM531.563 99.896H530.375V97.1877H531.5C533.083 97.1877 533.583 97.5627 533.583 98.5627C533.583 99.5627 532.708 99.896 531.563 99.896Z" fill="white"/>
<path d="M245.771 28.2083C235.354 28.2083 227.021 32.5 223.792 37.2292V0H201.042V105.896H223.458V97.3542C226.979 103.167 234.75 107.583 244.833 107.583C266.042 107.583 281 90.9167 281 67.75C281.021 45 267.75 28.2083 245.771 28.2083ZM240.729 86.8333C231.729 86.8333 223.479 80.4167 223.479 67.8958C223.479 55.375 231.812 49.1458 240.729 49.1458C249.646 49.1458 257.833 55.1042 257.833 67.8958C257.833 80.6875 249.729 86.8333 240.729 86.8333Z" fill="white"/>
<path d="M353.792 94.1457V57.104C353.792 41.5415 344.792 27.7915 320.229 27.7915C297.937 27.7915 287.854 42.1457 286.896 52.979L307.042 57.1457C307.313 53.9576 308.825 51.0035 311.252 48.919C313.68 46.8345 316.828 45.7863 320.021 45.9998C327.354 45.9998 331.167 49.8123 331.167 54.3332C331.167 56.9165 329.792 58.9165 325.667 59.5207L307.813 62.2707C295.313 64.104 285.375 71.729 285.375 85.1873C285.375 97.229 295 108.229 311.625 108.229C321.708 108.229 329.021 104.062 333 97.5415C332.914 100.409 333.173 103.277 333.771 106.083H354.604C354.016 102.132 353.744 98.1401 353.792 94.1457ZM331.208 76.1457C331.208 87.8957 324.188 91.2498 317.313 91.2498C310.917 91.2498 308.312 87.4373 308.312 83.4582C308.312 78.1248 311.979 75.8332 316.854 75.1248L331.208 72.8332V76.1457Z" fill="white"/>
<path d="M435.187 58.2915V105.896H412V62.1457C412 54.6665 408.021 49.0207 399.625 49.0207C392 49.0207 387.125 54.6665 387.125 62.2915V105.896H363.917V30.0207H386.354V38.729C390.521 31.5623 399.792 28.0415 407.562 28.0415C426.646 28.0623 435.187 41.6457 435.187 58.2915Z" fill="white"/>
<path d="M468.813 0V55.5417L491.854 30.0625H521.938L492.313 61.9583L522.542 105.917H494.146L476.292 79.2083L468.813 87.2917V105.917H445.625V0H468.813Z" fill="white"/>
<path d="M0 113.542L90.625 150L181.25 113.542V0H0V113.542Z" fill="#808080"/>
<path d="M68.9375 98.271C64.9791 104.833 56.2708 107.584 48.6458 107.584C30.1666 107.584 19.7916 94.146 19.7916 77.9793V30.021H43V73.0835C43 80.4168 46.9583 86.2085 55.2083 86.2085C63 86.2085 67.875 80.8752 67.875 73.2502V30.021H91.0833V92.3127C91.0799 96.8509 91.3303 101.386 91.8333 105.896H69.5625C69.174 103.372 68.9652 100.824 68.9375 98.271Z" fill="white"/>
<path d="M119.937 80.875C120.25 86.0625 123.917 91.1042 131.854 91.1042C137.812 91.1042 140.708 87.8958 140.708 84.5417C140.708 81.7917 138.875 79.5 133.229 78.2917L124.521 76.2083C108.354 72.7917 101.937 63.625 101.937 52.9375C101.937 39.0625 114.146 27.75 131.104 27.75C153.083 27.75 160.729 41.5 161.479 50.3542L142.208 53.8542C142.119 52.532 141.767 51.2408 141.173 50.0564C140.578 48.872 139.753 47.8182 138.746 46.9567C137.739 46.0952 136.57 45.4434 135.308 45.0395C134.046 44.6355 132.716 44.4875 131.396 44.6042C126.958 44.6042 123.062 47.2083 123.062 51.1667C123.062 54.375 125.667 56.2083 129.021 56.8125L139.104 58.8958C154.812 62.0833 162.437 71.5625 162.437 82.6875C162.437 95.6667 152.521 108.333 132.229 108.333C108.417 108.333 100.792 92.9167 100.167 84.5208L119.937 80.875Z" fill="white"/>
</g>
<defs>
<clipPath id="clip0_921_20">
<rect width="538.583" height="150" fill="white"/>
</clipPath>
</defs>
</svg>
